<svg xmlns="http://www.w3.org/2000/svg" width="256" height="256" viewBox="0 0 100 100"><rect width="100" height="100" rx="20" fill="#022e68"></rect><path d="M17.07 20.41L34.96 20.41L50.09 60.64L50.27 60.64L65.49 20.41L83.11 20.41L83.11 27.62L80.17 27.88Q77.50 28.15 77.59 31.00L77.59 31.00L79.81 71.76L85.33 72.03L85.33 79.59L63.88 79.59L63.88 72.38L67.09 72.12Q69.49 71.94 69.40 69.80L69.40 69.80L67.71 38.39L67.53 38.39L53.83 73.90L45.37 73.90L31.84 38.74L31.67 38.74L29.89 71.76L35.67 72.03L35.67 79.59L14.67 79.59L14.67 72.38L17.87 72.12Q19.92 71.94 20.10 69.71L20.10 69.71L22.50 28.33L17.07 27.97L17.07 20.41Z" fill="#fff"></path></svg>